<svg id="Layer_1" data-name="Layer 1" xmlns="http://www.w3.org/2000/svg" viewBox="0 0 140 34"><defs><style>.cls-1{fill:#d79491;}</style></defs><title>logo</title><path class="cls-1" d="M28.189,33.666H21.543L6.647,10.777V33.666H0V0H6.647l14.9,23.08V0h6.646V33.666Z"/><path class="cls-1" d="M50.108,8.488a8.548,8.548,0,0,1,3.347,4.244V7.248h6.6V33.666h-6.6V28.135A8.679,8.679,0,0,1,50.108,32.4,9.84,9.84,0,0,1,44.451,34a11.108,11.108,0,0,1-5.939-1.622,10.9,10.9,0,0,1-4.124-4.7A16.45,16.45,0,0,1,32.9,20.458a16.455,16.455,0,0,1,1.485-7.225,10.908,10.908,0,0,1,4.124-4.7,11.126,11.126,0,0,1,5.939-1.622A9.949,9.949,0,0,1,50.108,8.488ZM41.529,14.83a8,8,0,0,0-1.885,5.627,7.9,7.9,0,0,0,1.885,5.6,6.5,6.5,0,0,0,5,2.027A6.539,6.539,0,0,0,51.5,26.013a7.769,7.769,0,0,0,1.956-5.555,7.839,7.839,0,0,0-1.956-5.6,6.539,6.539,0,0,0-4.973-2.074A6.466,6.466,0,0,0,41.529,14.83Z"/><path class="cls-1" d="M106.839,9.848q2.757,2.98,2.757,8.464V33.666H103V19.075a6.64,6.64,0,0,0-1.533-4.7,5.483,5.483,0,0,0-4.219-1.644,5.772,5.772,0,0,0-4.43,1.764,7.27,7.27,0,0,0-1.65,5.15v14.02h-6.6V19.075a6.644,6.644,0,0,0-1.532-4.7,5.486,5.486,0,0,0-4.219-1.644A5.776,5.776,0,0,0,74.384,14.5a7.275,7.275,0,0,0-1.65,5.15v14.02H66.088V7.248h6.646v5.007A8.163,8.163,0,0,1,76.01,8.274,9.585,9.585,0,0,1,81.22,6.867a9.813,9.813,0,0,1,5.491,1.526,9.318,9.318,0,0,1,3.512,4.388,9.931,9.931,0,0,1,3.652-4.315A10.593,10.593,0,0,1,106.839,9.848Z"/><path class="cls-1" d="M139.764,21.745H120.626a7.321,7.321,0,0,0,1.886,5.2,6.021,6.021,0,0,0,4.336,1.669,6.242,6.242,0,0,0,3.842-1.144,5.075,5.075,0,0,0,1.956-3.1h7.024a11.438,11.438,0,0,1-2.216,4.96,11.6,11.6,0,0,1-4.361,3.433,14.784,14.784,0,0,1-12.7-.406,11.494,11.494,0,0,1-4.619-4.7,14.912,14.912,0,0,1-1.65-7.2,15.056,15.056,0,0,1,1.65-7.225,11.313,11.313,0,0,1,4.619-4.7,13.943,13.943,0,0,1,6.788-1.622,13.637,13.637,0,0,1,6.764,1.622,11.361,11.361,0,0,1,4.478,4.459A13.181,13.181,0,0,1,139.764,21.745Zm-8.131-7.868a6.338,6.338,0,0,0-4.455-1.669,6.486,6.486,0,0,0-4.525,1.669,6.869,6.869,0,0,0-2.027,4.911h12.68A5.964,5.964,0,0,0,131.633,13.877Z"/></svg>